<svg width="55" height="55" viewBox="0 0 55 55" fill="none" xmlns="http://www.w3.org/2000/svg">
<path d="M27.4359 54.0645C42.1425 54.0645 54.0645 42.1425 54.0645 27.436C54.0645 12.7295 42.1425 0.807495 27.4359 0.807495" stroke="#555555" stroke-width="0.887617"/>
<path d="M27.4359 54.0645C12.7294 54.0645 0.807373 42.1425 0.807373 27.436C0.807373 12.7295 12.7294 0.807495 27.4359 0.807495" stroke="#555555" stroke-width="0.887617" stroke-dasharray="1.78 1.78"/>
<path d="M17.9322 26.8084C17.5855 27.155 17.5855 27.717 17.9322 28.0637L23.5809 33.7124C23.9276 34.0591 24.4896 34.0591 24.8362 33.7124C25.1829 33.3658 25.1829 32.8038 24.8362 32.4572L19.8151 27.436L24.8362 22.4149C25.1829 22.0683 25.1829 21.5063 24.8362 21.1596C24.4896 20.813 23.9276 20.813 23.5809 21.1596L17.9322 26.8084ZM36.3122 28.3237C36.8024 28.3237 37.1998 27.9263 37.1998 27.436C37.1998 26.9458 36.8024 26.5484 36.3122 26.5484V28.3237ZM18.5598 27.436V28.3237H36.3122V27.436V26.5484H18.5598V27.436Z" fill="url(#paint0_linear_246_425)"/>
<defs>
<linearGradient id="paint0_linear_246_425" x1="18.5598" y1="26.936" x2="36.3122" y2="26.936" gradientUnits="userSpaceOnUse">
<stop stop-color="#FBF0BA"/>
<stop offset="1" stop-color="#AB84FF"/>
</linearGradient>
</defs>
</svg>
