<svg width="30" height="19" viewBox="0 0 30 19" fill="none" xmlns="http://www.w3.org/2000/svg">
<path d="M28.4134 7.99799C27.9301 6.95789 27.221 6.16542 26.2922 5.62061C25.3634 5.06871 24.0958 4.79984 22.4892 4.79984C20.5124 4.79984 18.9624 5.40834 17.8453 6.63241C16.722 7.84941 16.1572 9.44848 16.1572 11.4226C16.1572 12.8164 16.4396 14.0193 16.9981 15.0523C17.5566 16.0783 18.2658 16.8283 19.113 17.3024C19.9664 17.7693 21.1337 18.0099 22.621 18.0099C24.328 18.0099 25.6396 17.734 26.5558 17.1821C27.403 16.6726 28.131 15.8589 28.746 14.741C28.815 14.6066 28.746 14.4368 28.6016 14.4226L25.012 14.0405C24.8112 14.0193 24.6041 14.0971 24.466 14.2669C24.2778 14.5146 24.0958 14.6915 23.9201 14.8047C23.5372 15.0452 23.1356 15.1655 22.7151 15.1655C22.0437 15.1655 21.504 14.8896 21.0898 14.3377C20.7948 13.9627 20.6066 13.3825 20.5312 12.6042H29.0848C29.0848 12.6042 29.1288 12.5264 29.1413 12.4839V12.0594C29.1413 10.3895 28.8966 9.0381 28.4134 7.99799ZM20.5375 10.2834C20.6128 9.52631 20.776 8.96027 21.0333 8.57819C21.4412 7.96969 21.9872 7.66544 22.6712 7.66544C23.2611 7.66544 23.7381 7.87063 24.102 8.27394C24.466 8.67725 24.6857 9.34943 24.7735 10.2834H20.5375ZM13.6971 9.9933C13.17 9.25744 12.3542 8.74093 11.2434 8.43668C11.9714 8.15366 12.5299 7.7645 12.9064 7.26921C13.4775 6.53335 13.7662 5.64891 13.7662 4.61588C13.7662 3.3918 13.3645 2.35877 12.5675 1.52386C11.7643 0.688943 10.6221 0.271484 9.12853 0.271484H1.22758C0.650232 0.271484 0.179565 0.802153 0.179565 1.4531V16.517C0.179565 17.1821 0.656507 17.7198 1.24641 17.7198H8.43194C8.78337 17.7198 9.49879 17.642 10.5782 17.4863C11.3815 17.366 11.9902 17.175 12.3918 16.9132C13.0382 16.4887 13.5465 15.9226 13.9231 15.2009C14.2933 14.4792 14.4816 13.6655 14.4816 12.7598C14.4816 11.649 14.218 10.7221 13.6971 9.9933ZM4.9992 3.80926H7.11407C7.83576 3.80926 8.34408 3.95077 8.63904 4.24087C8.92771 4.52389 9.07832 4.92013 9.07832 5.42957C9.07832 5.97438 8.92771 6.39184 8.63904 6.68194C8.34408 6.97204 7.82949 7.12062 7.08269 7.12062H4.9992V3.80926ZM9.18501 13.4816C8.84613 13.807 8.2625 13.9698 7.4404 13.9698H4.9992V10.4391H7.42785C8.26878 10.4391 8.85241 10.5947 9.18501 10.906C9.52389 11.2244 9.68706 11.6348 9.68706 12.1513C9.68706 12.7103 9.51762 13.149 9.18501 13.4816Z" fill="#969696"/>
<path d="M27.3968 0.0878906H17.7324C17.573 0.0878906 17.4437 0.23361 17.4437 0.413366V2.75538C17.4437 2.93513 17.573 3.08085 17.7324 3.08085H27.3968C27.5562 3.08085 27.6855 2.93513 27.6855 2.75538V0.413366C27.6855 0.23361 27.5562 0.0878906 27.3968 0.0878906Z" fill="#969696"/>
</svg>
