<svg width="26" height="25" viewBox="0 0 26 25" fill="none" xmlns="http://www.w3.org/2000/svg">
<path d="M21.9033 3.6002C19.6811 1.37655 16.6033 0 13.2106 0C9.81794 0 6.74012 1.37655 4.51788 3.6002C2.29281 5.82386 0.91626 8.90168 0.91626 12.2943C0.91626 15.687 2.29281 18.7648 4.51788 20.9871C6.74012 23.2107 9.81794 24.5887 13.2106 24.5873C16.6033 24.5873 19.6811 23.2107 21.9033 20.9871C24.127 18.7648 25.505 15.687 25.505 12.2943C25.505 8.90168 24.1284 5.82386 21.9033 3.6002ZM24.0931 12.2943C24.0931 12.3198 24.0917 12.3466 24.0917 12.372C22.7857 12.1362 21.5504 12.0289 20.387 12.0289C19.0641 12.0289 17.833 12.1673 16.6922 12.4087C16.2729 11.3442 15.8013 10.3573 15.3016 9.44666C17.3261 8.61367 18.7662 7.63385 19.7531 6.76274C20.5296 6.07799 21.028 5.46384 21.3217 5.04311C23.0455 6.97028 24.0931 9.50736 24.0931 12.2958V12.2943ZM20.2952 4.03788C20.1894 4.20447 20.003 4.47414 19.7122 4.80874C18.9653 5.66715 17.5351 6.95616 15.0079 8.03905C14.8695 8.09834 14.7283 8.15623 14.5829 8.21411C13.6892 6.77262 12.7489 5.55985 11.8962 4.58708C10.8542 3.39972 9.94219 2.56532 9.39439 2.10083C10.5818 1.65609 11.8665 1.41185 13.2106 1.41185C15.9199 1.41185 18.3907 2.40155 20.2952 4.03788ZM5.51605 4.59979C6.27421 3.84304 7.1425 3.19783 8.09408 2.68956L8.01361 2.79969C8.0489 2.8251 10.3093 4.51932 12.5456 7.69314C12.7729 8.01504 12.9988 8.35248 13.2219 8.70403C10.8514 9.46077 7.74536 10.0015 3.70607 10.0015C3.33757 10.0015 2.9592 9.99586 2.57518 9.98598C3.02414 7.90916 4.06467 6.05258 5.51464 4.6012L5.51605 4.59979ZM2.32811 12.2943C2.32811 11.9894 2.34364 11.6887 2.36905 11.3894C2.82366 11.4021 3.27263 11.4105 3.70748 11.4105C7.30062 11.4105 10.2147 10.9955 12.5696 10.3644C13.0595 10.2331 13.5226 10.0919 13.9659 9.94362C14.4502 10.8105 14.9091 11.7508 15.3157 12.7645C14.6916 12.9537 14.0987 13.1725 13.5382 13.4168C10.658 14.6677 8.59811 16.5355 7.25545 18.0886C6.54105 18.9159 6.02996 19.6529 5.70383 20.1682C5.64171 20.1089 5.57817 20.051 5.51746 19.9903C3.54653 18.0194 2.33093 15.303 2.32952 12.2958L2.32811 12.2943ZM6.79518 21.0831C7.23991 20.356 8.23668 18.9018 9.84053 17.4631C10.9686 16.4508 12.3946 15.4456 14.1396 14.6931C14.6634 14.4672 15.2183 14.2653 15.8013 14.0916C16.527 16.2645 16.9958 18.7295 16.9972 21.4798C16.9972 21.7932 16.9915 22.1109 16.9788 22.4314L17.1511 22.4385C15.9298 22.9128 14.6027 23.1768 13.212 23.1768C10.8105 23.1768 8.59529 22.3989 6.7966 21.0831H6.79518ZM20.9066 19.9903C20.1696 20.7273 19.3281 21.3584 18.4062 21.861C18.4076 21.7339 18.4104 21.6069 18.4104 21.4812C18.4104 18.6138 17.9262 16.0301 17.1779 13.7528C18.169 13.5551 19.2378 13.4422 20.3884 13.4422C21.5094 13.4422 22.7095 13.5495 23.9915 13.7895C23.6611 16.1981 22.5471 18.3526 20.908 19.9917L20.9066 19.9903Z" fill="#969696"/>
<path d="M13.2102 0.558594C16.4488 0.558594 19.3865 1.87225 21.5081 3.99512C23.6323 6.11803 24.9464 9.05549 24.9465 12.2939C24.9465 15.3301 23.7905 18.1018 21.8967 20.1846L21.5081 20.5918C19.3865 22.7147 16.4489 24.0283 13.2102 24.0283C10.5467 24.0294 8.08824 23.1386 6.11841 21.6416H6.61938C8.48267 22.9588 10.7548 23.7354 13.2122 23.7354C14.6741 23.7353 16.0701 23.4576 17.3538 22.959L17.2668 22.4424L17.5374 22.4531C17.5504 22.1247 17.5559 21.7995 17.5559 21.4795C17.5545 18.6649 17.0745 16.1404 16.3313 13.915L16.1604 13.4014L15.6418 13.5557C15.0382 13.7354 14.4626 13.9449 13.9182 14.1797C12.1085 14.9601 10.6321 16.0014 9.46704 17.0469C7.81192 18.5315 6.78263 20.0324 6.3186 20.791L5.90161 21.4717C5.55623 21.1962 5.22512 20.9038 4.91333 20.5918H4.91235C2.78824 18.4703 1.47485 15.5325 1.47485 12.2939C1.47496 9.05549 2.78907 6.11802 4.91333 3.99512C7.03478 1.87239 9.97177 0.558703 13.2102 0.558594ZM20.3889 12.8838C19.2014 12.8838 18.0955 13.0003 17.0686 13.2051L16.4504 13.3281L16.6467 13.9268C17.378 16.1523 17.8518 18.6779 17.8518 21.4814C17.8518 21.6033 17.8484 21.7188 17.8469 21.8545L17.8372 22.8076L18.6741 22.3516C19.4782 21.9132 20.2226 21.3803 20.8958 20.7695L20.9084 20.7822L21.303 20.3867C23.0258 18.6639 24.1977 16.3983 24.5452 13.8652L24.6174 13.3379L24.094 13.2402C22.7798 12.9942 21.5456 12.8838 20.3889 12.8838ZM13.7883 9.41406C13.3551 9.55892 12.9029 9.69614 12.425 9.82422C10.1225 10.4413 7.25734 10.8516 3.70728 10.8516C3.27957 10.8516 2.83636 10.8437 2.38501 10.8311L1.85669 10.8164L1.81177 11.3418C1.78533 11.6532 1.76881 11.9702 1.7688 12.2939V12.5264L1.77661 12.5342C1.84046 15.6005 3.10296 18.3664 5.12231 20.3857C5.18824 20.4517 5.26882 20.5257 5.31763 20.5723L5.81177 21.043L6.17603 20.4668C6.48993 19.9708 6.98476 19.257 7.67798 18.4541C8.98237 16.9453 10.978 15.1384 13.761 13.9297V13.9287C14.3012 13.6933 14.8742 13.4818 15.4778 13.2988L16.0618 13.1221L15.8342 12.5566C15.418 11.5189 14.9482 10.5568 14.4534 9.6709L14.2278 9.2666L13.7883 9.41406ZM20.8635 4.72363C20.6273 5.06199 20.2385 5.5485 19.6487 6.10254L19.3831 6.34375C18.443 7.17347 17.0563 8.12028 15.0891 8.92969L14.511 9.16797L14.8118 9.71582C15.3009 10.607 15.7621 11.5723 16.1721 12.6133L16.3459 13.0537L16.8079 12.9551C17.911 12.7216 19.1034 12.5879 20.387 12.5879C21.5158 12.5879 22.718 12.6918 23.9924 12.9219L24.6506 13.041V12.3486C24.6509 12.337 24.6516 12.3155 24.6516 12.2939C24.6512 9.36339 23.5497 6.69583 21.7385 4.6709L21.2678 4.14453L20.8635 4.72363ZM7.83032 2.19629C6.95516 2.66376 6.14704 3.24137 5.42505 3.91113L5.12134 4.2041L5.11938 4.20605C3.59561 5.73132 2.50079 7.68373 2.02856 9.86816L1.88599 10.5273L2.56079 10.5449C2.9487 10.5549 3.33219 10.5605 3.7063 10.5605C7.79546 10.5605 10.9596 10.0128 13.3918 9.23633L14.0823 9.0166L13.6936 8.4043C13.5798 8.22495 13.4651 8.04916 13.3499 7.87695L13.0022 7.37109C10.7217 4.13476 8.41257 2.39789 8.34009 2.3457L8.16724 2.58496L7.83032 2.19629ZM13.2102 0.852539C11.7981 0.852588 10.4471 1.1095 9.19849 1.57715L8.30688 1.91113L9.03345 2.52734C9.56353 2.97685 10.4548 3.79252 11.4758 4.95605V4.95508C12.3113 5.9081 13.2323 7.09693 14.1077 8.50879L14.3547 8.90625L14.7893 8.7334C14.9381 8.67419 15.0841 8.61433 15.2278 8.55273C17.8359 7.43517 19.3345 6.09468 20.134 5.17578C20.445 4.81803 20.6477 4.52532 20.7668 4.33789L21.0266 3.92969L20.6594 3.61426C18.6577 1.89443 16.0586 0.852539 13.2102 0.852539Z" stroke="#626366" stroke-opacity="0.7" stroke-width="1.11767"/>
</svg>
