<svg width="34" height="35" viewBox="0 0 34 35" fill="none" xmlns="http://www.w3.org/2000/svg">
<path d="M7.36169 30.4507H4.95445C4.1567 30.4507 3.44759 30.0279 2.92508 29.3494C2.40724 28.6664 2.09001 27.7416 2.09001 26.7054V6.5381C2.09001 5.50186 2.40724 4.57714 2.92508 3.89405C3.44759 3.21097 4.16136 2.7881 4.95911 2.7881H16.93C17.7278 2.7881 18.4369 3.21097 18.9594 3.88941C19.4772 4.57249 19.7945 5.49721 19.7945 6.53346V12.6255C19.7945 13.3968 20.261 14.0195 20.8441 14.0195C21.4226 14.0195 21.8938 13.3968 21.8938 12.6255V6.53346C21.8938 4.72584 21.334 3.08085 20.4383 1.9052C19.5332 0.729554 18.2876 0 16.93 0H4.95911C3.59687 0 2.35126 0.729554 1.46021 1.90985C0.559824 3.0855 0 4.73048 0 6.53346V26.7007C0 28.5037 0.559824 30.1533 1.45554 31.329C2.35126 32.5093 3.59221 33.2388 4.95445 33.2388H7.36169C7.94018 33.2388 8.4067 32.6162 8.4067 31.8448C8.41136 31.0734 7.94018 30.4507 7.36169 30.4507Z" fill="black"/>
<path d="M26.7318 19.9303L25.7708 18.9173L17.9193 26.329C17.4807 26.7426 17.1915 27.2909 17.0982 27.8857L16.4777 31.8494V31.8448C16.4544 31.9842 16.4451 32.1282 16.4451 32.2723C16.4451 33.0204 16.753 33.7035 17.2428 34.1914C17.7327 34.684 18.4231 34.9953 19.1835 34.9953C19.2535 34.9953 19.3282 34.9907 19.3981 34.9861L23.9094 34.6097C24.5439 34.5585 25.1363 34.289 25.5935 33.8476L33.1792 26.4963C33.7296 25.9619 34.0096 25.2463 34.0049 24.54C34.0049 23.8522 33.739 23.1552 33.2165 22.6255L29.6056 18.9777C29.0738 18.4387 28.36 18.1645 27.6556 18.1645C26.9838 18.1645 26.298 18.4154 25.7708 18.9173L25.7755 18.9126L26.7318 19.9303L27.6975 20.9387L27.6509 20.8922V20.9572L27.6975 20.9387L27.6509 20.8922V20.9572V20.8968L27.6089 20.9387L27.6509 20.9572V20.8968L27.6089 20.9387L31.2198 24.5864L31.2618 24.5446H31.2011L31.2198 24.5864L31.2618 24.5446L31.2198 24.5028L31.2011 24.5446H31.2618L31.2198 24.5028L23.6388 31.8587L23.6808 31.9006L23.6761 31.8401L23.6388 31.8587L23.6808 31.9006L23.6761 31.8401L19.1835 32.2119L19.3002 33.6013L19.2022 32.2119H19.1882V32.2769L19.2349 32.2305L19.1882 32.2119V32.2769H19.2535L19.2349 32.2305L19.1882 32.2769H19.2535H19.1929L19.2489 32.2862V32.2769H19.1882L19.2442 32.2862V32.2816L19.8647 28.3178L19.804 28.3085L19.846 28.3504L19.8647 28.3178L19.804 28.3085L19.846 28.3504L27.6929 20.9433L27.6975 20.9387L26.7318 19.9303Z" fill="black"/>
<path d="M13.0719 7.06787H8.78458C8.38803 7.06787 8.0708 6.74724 8.0708 6.3569C8.0708 5.96192 8.3927 5.64594 8.78458 5.64594H13.0719C13.4684 5.64594 13.7857 5.96657 13.7857 6.3569C13.7857 6.75188 13.4638 7.06787 13.0719 7.06787Z" fill="black"/>
<path d="M17.2079 18.7648L13.5329 22.3775C13.3121 22.5945 12.9418 22.4405 12.9418 22.1394V11.8194C12.9418 11.2383 12.4646 10.7692 11.8735 10.7692C11.2823 10.7692 10.8051 11.2383 10.8051 11.8194V22.3144C10.8051 22.6155 10.4348 22.7695 10.214 22.5525L5.90512 18.3167C5.48492 17.9036 4.80831 17.9036 4.39523 18.3167C3.97503 18.7298 3.97503 19.3949 4.39523 19.801L11.5387 26.8233C11.674 26.9563 11.8948 26.9563 12.0301 26.8233L18.7249 20.242C19.1451 19.829 19.1451 19.1638 18.7249 18.7578C18.3047 18.3517 17.6281 18.3517 17.2079 18.7648Z" fill="black"/>
</svg>
