<svg width="55" height="54" viewBox="0 0 55 54" fill="none" xmlns="http://www.w3.org/2000/svg">
<g clip-path="url(#clip0_1_298)">
<rect x="0.93503" y="0.303682" width="53.0241" height="53.0241" rx="26.5121" fill="#111111" stroke="black" stroke-width="0.607365"/>
<g filter="url(#filter0_f_1_298)">
<rect x="5.23871" y="4.60736" width="43.7853" height="43.7853" rx="21.8926" stroke="#333335" stroke-width="1.21473"/>
</g>
<g clip-path="url(#clip1_1_298)">
<path d="M23.413 36.6206H21.643C21.0564 36.6206 20.535 36.3064 20.1508 35.8024C19.77 35.295 19.5368 34.6081 19.5368 33.8383V18.8569C19.5368 18.0871 19.77 17.4002 20.1508 16.8927C20.535 16.3853 21.0598 16.0712 21.6464 16.0712H30.4485C31.0351 16.0712 31.5565 16.3853 31.9407 16.8893C32.3215 17.3967 32.5547 18.0836 32.5547 18.8534V23.3789C32.5547 23.9519 32.8978 24.4145 33.3266 24.4145C33.7519 24.4145 34.0984 23.9519 34.0984 23.3789V18.8534C34.0984 17.5106 33.6867 16.2886 33.0281 15.4153C32.3627 14.542 31.4468 14 30.4485 14H21.6464C20.6448 14 19.7289 14.542 19.0737 15.4187C18.4116 16.2921 18 17.5141 18 18.8534V33.8348C18 35.1742 18.4116 36.3996 19.0703 37.273C19.7289 38.1498 20.6413 38.6917 21.643 38.6917H23.413C23.8384 38.6917 24.1814 38.2292 24.1814 37.6561C24.1848 37.0831 23.8384 36.6206 23.413 36.6206Z" fill="#8614C9"/>
<path d="M37.6556 28.8054L36.949 28.0529L31.1758 33.5587C30.8533 33.8659 30.6406 34.2733 30.572 34.7151L30.1158 37.6596V37.6562C30.0987 37.7597 30.0918 37.8667 30.0918 37.9737C30.0918 38.5295 30.3182 39.0369 30.6784 39.3994C31.0386 39.7653 31.5462 39.9966 32.1054 39.9966C32.1568 39.9966 32.2117 39.9931 32.2632 39.9897L35.5803 39.7101C36.0468 39.6721 36.4824 39.4719 36.8186 39.1439L42.3963 33.683C42.801 33.286 43.0069 32.7544 43.0034 32.2297C43.0034 31.7188 42.8079 31.201 42.4237 30.8075L39.7687 28.0977C39.3776 27.6973 38.8528 27.4937 38.3348 27.4937C37.8408 27.4937 37.3366 27.6801 36.949 28.0529L36.9524 28.0494L37.6556 28.8054L38.3657 29.5545L38.3314 29.5199V29.5683L38.3657 29.5545L38.3314 29.5199V29.5683V29.5234L38.3005 29.5545L38.3314 29.5683V29.5234L38.3005 29.5545L40.9555 32.2642L40.9864 32.2332H40.9418L40.9555 32.2642L40.9864 32.2332L40.9555 32.2021L40.9418 32.2332H40.9864L40.9555 32.2021L35.3813 37.6665L35.4122 37.6976L35.4088 37.6527L35.3813 37.6665L35.4122 37.6976L35.4088 37.6527L32.1054 37.9289L32.1911 38.961L32.1191 37.9289H32.1088V37.9772L32.1431 37.9427L32.1088 37.9289V37.9772H32.1568L32.1431 37.9427L32.1088 37.9772H32.1568H32.1122L32.1534 37.9841V37.9772H32.1088L32.15 37.9841V37.9806L32.6062 35.0361L32.5616 35.0292L32.5925 35.0603L32.6062 35.0361L32.5616 35.0292L32.5925 35.0603L38.3622 29.5579L38.3657 29.5545L37.6556 28.8054Z" fill="#8614C9"/>
<path d="M27.6116 19.2504H24.4592C24.1676 19.2504 23.9343 19.0122 23.9343 18.7222C23.9343 18.4288 24.171 18.1941 24.4592 18.1941H27.6116C27.9032 18.1941 28.1364 18.4323 28.1364 18.7222C28.1364 19.0157 27.8997 19.2504 27.6116 19.2504Z" fill="#8614C9"/>
<path d="M30.6528 27.9395L27.9506 30.6233C27.7883 30.7845 27.5159 30.6701 27.5159 30.4464V22.7801C27.5159 22.3485 27.1651 22 26.7304 22C26.2958 22 25.9449 22.3485 25.9449 22.7801V30.5764C25.9449 30.8001 25.6726 30.9145 25.5102 30.7533L22.3419 27.6067C22.033 27.2998 21.5355 27.2998 21.2317 27.6067C20.9228 27.9135 20.9228 28.4076 21.2317 28.7093L26.4843 33.9259C26.5838 34.0247 26.7461 34.0247 26.8456 33.9259L31.7683 29.0369C32.0772 28.7301 32.0772 28.236 31.7683 27.9343C31.4593 27.6327 30.9618 27.6327 30.6528 27.9395Z" fill="#8614C9"/>
</g>
</g>
<defs>
<filter id="filter0_f_1_298" x="-0.368652" y="-1" width="55" height="55" filterUnits="userSpaceOnUse" color-interpolation-filters="sRGB">
<feFlood flood-opacity="0" result="BackgroundImageFix"/>
<feBlend mode="normal" in="SourceGraphic" in2="BackgroundImageFix" result="shape"/>
<feGaussianBlur stdDeviation="2.5" result="effect1_foregroundBlur_1_298"/>
</filter>
<clipPath id="clip0_1_298">
<rect x="0.631348" width="53.6315" height="53.6315" rx="26.8157" fill="white"/>
</clipPath>
<clipPath id="clip1_1_298">
<rect width="25" height="26" fill="white" transform="translate(18 14)"/>
</clipPath>
</defs>
</svg>
