<svg width="20" height="20" viewBox="0 0 20 20" fill="none" xmlns="http://www.w3.org/2000/svg">
<g clip-path="url(#clip0_11_1437)">
<path d="M14.2907 0.770446L15.3201 1.79622C15.4959 1.97135 15.4959 2.25656 15.3201 2.43419L2.30731 15.4014C2.13156 15.5766 1.84534 15.5766 1.66709 15.4014L0.773286 14.5108C0.48707 14.2255 0 14.4282 0 14.8285V19.5495C0 19.7972 0.203364 19.9999 0.451921 19.9999H5.18956C5.59126 19.9999 5.79463 19.5145 5.50841 19.2293L4.51921 18.2436C4.34346 18.0684 4.34346 17.7832 4.51921 17.6056L17.5973 4.5733C17.773 4.39817 18.0593 4.39817 18.2375 4.5733L19.2292 5.56154C19.5129 5.84425 20.0025 5.6441 20.0025 5.2438V0.567794C20.0025 0.325112 19.8117 0.127464 19.5682 0.117456C18.5589 0.0799283 16.0331 -0.00513554 14.6096 -0.000131786C14.2054 0.00237009 14.007 0.485232 14.2907 0.770446Z" fill="#D9D9D9"/>
<path d="M2.88476 3.56267V11.5587C2.88476 11.7713 2.7994 11.974 2.65127 12.1241C2.33743 12.4368 1.83028 12.4368 1.51895 12.1241L0.333918 10.9432C0.183278 10.7931 0.100426 10.5904 0.100426 10.3778V1.06079C0.100426 0.620464 0.459451 0.262695 0.901329 0.262695H10.5046C10.718 0.262695 10.9214 0.347759 11.0721 0.49537L12.0336 1.45359C12.3475 1.76632 12.3475 2.2717 12.0336 2.58193L11.9734 2.64198C11.8202 2.79459 11.6118 2.87966 11.3959 2.87465C10.1205 2.85714 5.56867 2.78959 3.69822 2.76207C3.24881 2.75957 2.88476 3.11734 2.88476 3.56267Z" fill="#D9D9D9"/>
<path d="M17.1805 8.89918V16.68C17.1805 17.0678 16.8642 17.383 16.475 17.383H8.62415C8.43836 17.383 8.25759 17.4581 8.12453 17.5882C7.84835 17.8634 7.84835 18.3087 8.12453 18.5814L9.08611 19.5397C9.21918 19.6723 9.39744 19.7448 9.58574 19.7448H19.1012C19.4903 19.7448 19.8067 19.4296 19.8067 19.0418V9.62472C19.8067 9.43958 19.7314 9.25945 19.6008 9.12685L18.599 8.1286C18.2953 7.82587 17.7956 7.8634 17.537 8.20366C17.4692 8.29122 17.4065 8.37378 17.3512 8.43883C17.2408 8.56893 17.1805 8.73155 17.1805 8.89918Z" fill="#D9D9D9"/>
</g>
<defs>
<clipPath id="clip0_11_1437">
<rect width="20" height="20" fill="white"/>
</clipPath>
</defs>
</svg>
