<svg width="23" height="23" viewBox="0 0 23 23" fill="none" xmlns="http://www.w3.org/2000/svg">
<path d="M18.0374 0.263672C20.6354 0.263672 22.7413 2.36974 22.7415 4.96777V18.1982C22.7412 20.7963 20.6354 22.9023 18.0374 22.9023H14.5422V15.1582H17.1946L17.592 12.1396H14.5422V10.2119C14.5423 9.33886 14.7901 8.74316 16.0686 8.74316L17.6995 8.74219V6.04199C17.4172 6.00533 16.4491 5.92285 15.3225 5.92285C12.971 5.92294 11.3616 7.32996 11.3616 9.91309V12.1387H8.70239V15.1572H11.3616V22.9023H4.95337C2.35547 22.9021 0.249496 20.7961 0.249268 18.1982V4.96777C0.249467 2.36986 2.35545 0.26387 4.95337 0.263672H18.0374Z" fill="#969696"/>
</svg>
