<svg width="26" height="24" viewBox="0 0 26 24" fill="none" xmlns="http://www.w3.org/2000/svg">
<path d="M13 9.33325V17.3333M13 17.3333L17 14.6666M13 17.3333L9 14.6666M1 3.99992V18.3999C1 19.8934 1 20.6396 1.29065 21.21C1.54631 21.7118 1.95396 22.1206 2.45573 22.3762C3.0256 22.6666 3.77199 22.6666 5.26254 22.6666H20.7374C22.228 22.6666 22.9733 22.6666 23.5432 22.3762C24.045 22.1206 24.454 21.7121 24.7096 21.2103C25.0003 20.6399 25.0003 19.8931 25.0003 18.3997L25.0003 8.26629C25.0003 6.77282 25.0003 6.02608 24.7096 5.45565C24.454 4.95388 24.0452 4.54623 23.5435 4.29057C22.973 3.99992 22.2268 3.99992 20.7333 3.99992H13M1 3.99992H13M1 3.99992C1 2.52716 2.19391 1.33325 3.66667 1.33325H8.56602C9.21826 1.33325 9.54515 1.33325 9.85205 1.40693C10.1242 1.47226 10.3838 1.58027 10.6224 1.72648C10.8914 1.89134 11.1224 2.12234 11.5833 2.58325L13 3.99992" stroke="white" stroke-width="2" stroke-linecap="round" stroke-linejoin="round"/>
</svg>
