<svg width="28" height="21" viewBox="0 0 28 21" fill="none" xmlns="http://www.w3.org/2000/svg">
<g clip-path="url(#clip0_208_2404)">
<path d="M27.4378 15.4541C27.6744 16.2682 27.1519 16.9375 26.5262 17.5626C25.4431 18.6444 24.0979 19.2759 22.6574 19.731C21.8173 19.9955 20.9565 20.1798 20.075 20.2601C19.7685 20.2884 19.5382 20.1971 19.3604 19.9451C19.084 19.5546 18.8045 19.1625 18.5075 18.7877C18.3519 18.5909 18.4122 18.5358 18.6219 18.4791C19.9655 18.1185 21.2328 17.5831 22.3874 16.8021C22.5304 16.7044 22.6749 16.6037 22.8035 16.4887C23.0624 16.2541 23.0878 15.9187 22.8782 15.6699C22.6797 15.4337 22.3493 15.388 22.0777 15.5833C19.8289 17.2036 17.2576 17.8099 14.5355 17.9154C12.2549 18.0051 10.0394 17.6886 7.92079 16.8147C7.17117 16.5044 6.4565 16.1297 5.80693 15.6415C5.47183 15.3896 5.12561 15.41 4.91121 15.6872C4.69522 15.9659 4.75715 16.3108 5.08749 16.5611C6.28497 17.4682 7.64603 18.0445 9.08174 18.4571C9.45655 18.5641 9.45814 18.561 9.22626 18.8759C8.96104 19.2381 8.69264 19.5971 8.43218 19.9625C8.28289 20.1703 8.08755 20.2931 7.83344 20.2664C5.55124 20.0191 3.42627 19.3641 1.6237 17.8839C1.48235 17.7673 1.35212 17.6351 1.2203 17.5075C0.588209 16.8965 0.291221 16.2053 0.356336 15.2793C0.62156 11.5332 1.45217 7.93344 2.95458 4.48645C3.05146 4.26285 3.17851 4.05184 3.2738 3.82666C3.73437 2.74957 4.63486 2.15592 5.64812 1.68194C7.10764 0.998523 8.64658 0.601703 10.249 0.434786C10.6715 0.390695 11.0701 0.754447 11.0574 1.16701C11.0527 1.32133 10.9081 1.28354 10.8255 1.29771C9.83453 1.47408 8.87051 1.7465 7.93191 2.1008C7.26011 2.35433 6.6169 2.66769 6.00228 3.03932C5.64176 3.25662 5.53695 3.58101 5.71958 3.88492C5.89746 4.18254 6.23256 4.25655 6.57561 4.05656C8.55129 2.89917 10.7096 2.36063 12.9791 2.2189C15.5869 2.05514 18.0787 2.51809 20.4435 3.62982C20.7024 3.75107 20.9485 3.89909 21.1979 4.03924C21.5648 4.24552 21.8999 4.19513 22.0857 3.89752C22.2778 3.59046 22.1667 3.2519 21.7935 3.02987C20.5086 2.263 19.1174 1.76225 17.6594 1.43786C17.4292 1.38747 17.1989 1.34338 16.967 1.30244C16.8082 1.27409 16.7161 1.24417 16.7923 1.03632C16.9876 0.502498 17.1353 0.385971 17.7309 0.458406C19.6002 0.683586 21.3742 1.18749 23.0179 2.13545C23.9629 2.68029 24.4282 3.56211 24.8396 4.4833C26.1164 7.33506 26.8915 10.3254 27.2695 13.4181C27.3076 13.7314 27.3441 14.0448 27.3711 14.3582C27.3965 14.6684 27.4092 14.9833 27.4378 15.4541ZM12.1278 11.7631C12.1342 10.9127 11.9436 10.3585 11.5656 9.90022C10.8335 9.0121 9.57566 8.93809 8.74505 9.7333C7.7985 10.6403 7.7715 12.3 8.68787 13.237C9.48355 14.0495 10.6874 14.0479 11.4703 13.226C11.9214 12.7535 12.1231 12.1804 12.1278 11.7631ZM15.6742 11.508C15.6663 11.8607 15.7393 12.1961 15.8728 12.5189C16.4826 13.9944 18.2772 14.3015 19.2428 13.0968C19.9051 12.2717 19.9734 11.0434 19.408 10.1537C18.8315 9.2483 17.7627 8.91289 16.8797 9.3916C16.0427 9.84511 15.7044 10.5962 15.6742 11.508Z" fill="#969696"/>
</g>
<defs>
<clipPath id="clip0_208_2404">
<rect width="27.1466" height="19.8379" fill="white" transform="translate(0.350342 0.431152)"/>
</clipPath>
</defs>
</svg>
