<svg width="24" height="23" viewBox="0 0 24 23" fill="none" xmlns="http://www.w3.org/2000/svg">
<path d="M15.0671 20.4404C15.0397 19.7302 15.1358 19.0167 15.0095 18.3098C14.9343 17.8887 14.7745 17.5059 14.506 17.1703C14.4566 17.1084 14.3577 17.052 14.3962 16.9666C14.4363 16.8768 14.5516 16.8844 14.6394 16.8735C15.1028 16.8144 15.5596 16.7251 16.0088 16.5964C18.0343 16.0166 19.2493 14.5573 19.4547 12.4595C19.5271 11.722 19.5683 10.9871 19.4097 10.2539C19.262 9.57167 18.9671 8.96003 18.5174 8.42725C18.3961 8.28379 18.3697 8.15785 18.423 7.98153C18.675 7.14923 18.6042 6.32623 18.3527 5.50433C18.2714 5.23931 18.1166 5.16538 17.8618 5.19769C16.9751 5.31049 16.207 5.71021 15.4767 6.18879C15.2412 6.3432 15.0331 6.37606 14.7619 6.31145C13.1053 5.91829 11.4444 5.92596 9.78846 6.31528C9.52327 6.3777 9.32066 6.33882 9.09664 6.19372C8.35651 5.71295 7.58453 5.30501 6.68462 5.19879C6.43041 5.16867 6.2915 5.23821 6.21682 5.489C5.9659 6.32897 5.89891 7.17113 6.15148 8.0215C6.19156 8.1573 6.18608 8.26298 6.09329 8.37468C5.11102 9.55469 4.91225 10.9274 5.10827 12.3955C5.21039 13.1604 5.39268 13.9013 5.78855 14.5754C6.48861 15.7669 7.58673 16.3801 8.8891 16.6928C9.23556 16.776 9.58586 16.8417 9.94165 16.8801C10.2003 16.908 10.2206 16.9595 10.063 17.1511C9.78846 17.4857 9.63747 17.875 9.56115 18.2917C9.52821 18.4708 9.43871 18.5567 9.28003 18.6191C7.99139 19.1262 6.86252 18.7484 6.13501 17.57C5.77044 16.9797 5.28123 16.5504 4.57129 16.4245C4.54439 16.4196 4.51748 16.4108 4.49057 16.4092C4.2973 16.3971 4.05572 16.3703 3.97665 16.5636C3.8921 16.7695 4.12435 16.8784 4.27095 16.966C4.88809 17.3356 5.29386 17.8821 5.54697 18.531C5.99501 19.6809 6.89107 20.1282 8.04739 20.2011C8.4235 20.2246 8.7985 20.189 9.16528 20.1085C9.42279 20.0521 9.48703 20.1447 9.48373 20.3851C9.4755 20.9507 9.48703 21.5163 9.48867 22.082C9.49032 22.7177 9.13233 22.9718 8.51958 22.7626C7.36655 22.3689 6.30687 21.7972 5.34931 21.0482C2.81484 19.0665 1.30053 16.4798 0.924428 13.2924C0.530752 9.95551 1.42517 6.95977 3.61867 4.39057C5.47284 2.21892 7.8382 0.921727 10.6675 0.513241C13.2937 0.133776 15.7782 0.608518 18.0551 1.97361C21.1364 3.82056 23.006 6.53814 23.5732 10.0749C24.4171 15.337 21.613 20.3139 16.9004 22.4149C16.6001 22.5485 16.2954 22.6772 15.983 22.7774C15.4114 22.9603 15.0677 22.7029 15.0649 22.1104C15.0633 21.8273 15.0666 21.5448 15.0671 21.2617C15.0677 20.9879 15.0671 20.7141 15.0671 20.4404Z" fill="#969696"/>
</svg>
