<svg width="25" height="25" viewBox="0 0 25 25" fill="none" xmlns="http://www.w3.org/2000/svg">
<path d="M0.697144 9.22721C0.748421 9.09033 0.8005 8.95425 0.850175 8.81737C1.20992 7.82878 2.11849 7.15718 3.16888 7.15077C5.31612 7.13877 7.46337 7.13397 9.61061 7.15238C10.9703 7.16358 12.0615 8.29625 12.0679 9.64986C12.0751 11.0243 10.9831 12.1722 9.60661 12.1834C7.45936 12.2018 5.31212 12.1954 3.16487 12.1842C2.11849 12.1786 1.20351 11.5014 0.847771 10.5152C0.798897 10.3791 0.74762 10.2438 0.697144 10.1077C0.697144 9.81476 0.697144 9.52098 0.697144 9.22721Z" fill="#969696"/>
<path d="M9.02969 24.8363C8.66754 24.6482 8.26533 24.5425 7.94485 24.2671C7.36557 23.7701 7.03066 23.1505 7.02586 22.3884C7.01384 20.2287 7.00823 18.0691 7.02746 15.9094C7.03948 14.5726 8.16758 13.4919 9.50881 13.4767C10.8685 13.4615 12.0398 14.5294 12.0583 15.8822C12.0879 18.0683 12.0791 20.2552 12.0583 22.4413C12.0486 23.4579 11.3492 24.3456 10.3613 24.697C10.2371 24.741 10.1137 24.7891 9.99034 24.8355C9.67065 24.8363 9.35017 24.8363 9.02969 24.8363Z" fill="#969696"/>
<path d="M16.3208 0.822266C16.6766 0.994368 17.07 1.08002 17.3921 1.33377C18.0282 1.83647 18.3928 2.48245 18.3976 3.29093C18.4112 5.43781 18.4144 7.58389 18.3976 9.73077C18.3872 11.0908 17.2567 12.1818 15.8994 12.1882C14.5149 12.1946 13.3732 11.1116 13.3612 9.73157C13.3427 7.58549 13.3475 5.43861 13.3604 3.29173C13.3668 2.24631 14.051 1.33137 15.0349 0.975154C15.1703 0.926325 15.3281 0.934333 15.4395 0.823067C15.7336 0.822266 16.0268 0.822266 16.3208 0.822266Z" fill="#969696"/>
<path d="M24.7337 16.4314C24.5782 16.7236 24.5277 17.0581 24.3387 17.3399C23.8427 18.0796 23.1593 18.5038 22.2691 18.511C20.1211 18.5286 17.9722 18.5294 15.8234 18.5134C14.4405 18.503 13.3525 17.3679 13.3565 15.9855C13.3605 14.6311 14.4493 13.4944 15.8098 13.4816C17.9578 13.4616 20.1067 13.468 22.2555 13.48C23.3179 13.4856 24.2393 14.1812 24.5902 15.1866C24.6327 15.3091 24.6247 15.454 24.7337 15.5509C24.7337 15.8446 24.7337 16.1384 24.7337 16.4314Z" fill="#969696"/>
<path d="M0.697144 15.5515C0.900651 14.9696 1.14101 14.4148 1.65459 14.0234C2.09285 13.6896 2.57839 13.4903 3.12722 13.4799C3.89958 13.4655 4.67275 13.4799 5.44512 13.4703C5.66145 13.4679 5.75439 13.5263 5.75038 13.7609C5.73836 14.5589 5.764 15.3586 5.73836 16.1567C5.70151 17.3214 4.77931 18.3108 3.59512 18.4965C2.43817 18.6782 1.2612 17.9826 0.859789 16.8795C0.806108 16.7306 0.751626 16.5817 0.697144 16.432C0.697144 16.1391 0.697144 15.8453 0.697144 15.5515Z" fill="#969696"/>
<path d="M9.99114 0.822266C10.1265 0.944739 10.3124 0.934334 10.4687 1.00398C11.4469 1.43943 12.007 2.18308 12.0599 3.25411C12.0983 4.02497 12.0583 4.79903 12.0743 5.57149C12.0799 5.83085 11.9757 5.88127 11.745 5.87807C11.0119 5.86687 10.278 5.88047 9.54487 5.87247C8.26293 5.85806 7.22857 4.96393 7.04429 3.72319C6.86161 2.49046 7.60193 1.33297 8.82057 0.939137C8.91912 0.907118 9.0369 0.919124 9.10981 0.823067C9.40385 0.822266 9.6971 0.822266 9.99114 0.822266Z" fill="#969696"/>
<path d="M15.4393 24.8365C15.2655 24.7725 15.0868 24.7172 14.9185 24.642C13.9547 24.2113 13.4147 23.4685 13.3642 22.4151C13.3273 21.645 13.3642 20.8709 13.349 20.0993C13.3442 19.8487 13.4315 19.7823 13.671 19.7863C14.4034 19.7999 15.1365 19.7863 15.8688 19.7927C17.1563 19.8039 18.2099 20.7213 18.3838 21.9732C18.552 23.1859 17.8101 24.3378 16.6147 24.7228C16.5145 24.7549 16.4184 24.7981 16.3198 24.8365C16.0266 24.8365 15.7334 24.8365 15.4393 24.8365Z" fill="#969696"/>
<path d="M24.7335 10.1084C24.6189 10.218 24.6285 10.3765 24.5796 10.511C24.2151 11.5044 23.3177 12.1688 22.2681 12.1888C21.5086 12.2032 20.7482 12.1832 19.9887 12.1976C19.7403 12.2024 19.669 12.1168 19.673 11.8758C19.6858 11.1298 19.6682 10.3837 19.681 9.63769C19.7027 8.36413 20.6104 7.34433 21.8643 7.16742C23.0549 6.99932 24.2127 7.73416 24.6045 8.90125C24.6413 9.01092 24.6301 9.1438 24.7351 9.22785C24.7335 9.52162 24.7335 9.8154 24.7335 10.1084Z" fill="#969696"/>
</svg>
