<svg width="658" height="58" viewBox="0 0 658 58" fill="none" xmlns="http://www.w3.org/2000/svg">
<path d="M0 0H445V58H0V0Z" fill="#8614C9"/>
<g clip-path="url(#clip0_277_212)">
<path d="M43.3617 42.4507H40.9544C40.1567 42.4507 39.4476 42.0279 38.9251 41.3494C38.4072 40.6664 38.09 39.7416 38.09 38.7054V18.5381C38.09 17.5019 38.4072 16.5771 38.9251 15.8941C39.4476 15.211 40.1614 14.7881 40.9591 14.7881H52.93C53.7278 14.7881 54.4369 15.211 54.9594 15.8894C55.4772 16.5725 55.7945 17.4972 55.7945 18.5335V24.6255C55.7945 25.3968 56.261 26.0195 56.8441 26.0195C57.4226 26.0195 57.8938 25.3968 57.8938 24.6255V18.5335C57.8938 16.7258 57.334 15.0809 56.4383 13.9052C55.5332 12.7296 54.2876 12 52.93 12H40.9591C39.5969 12 38.3513 12.7296 37.4602 13.9099C36.5598 15.0855 36 16.7305 36 18.5335V38.7007C36 40.5037 36.5598 42.1533 37.4555 43.329C38.3513 44.5093 39.5922 45.2388 40.9544 45.2388H43.3617C43.9402 45.2388 44.4067 44.6162 44.4067 43.8448C44.4114 43.0734 43.9402 42.4507 43.3617 42.4507Z" fill="black"/>
<path d="M62.7318 31.9303L61.7708 30.9173L53.9193 38.329C53.4807 38.7426 53.1915 39.2909 53.0982 39.8857L52.4777 43.8494V43.8448C52.4544 43.9842 52.4451 44.1282 52.4451 44.2723C52.4451 45.0204 52.753 45.7035 53.2428 46.1914C53.7327 46.684 54.4231 46.9953 55.1835 46.9953C55.2535 46.9953 55.3282 46.9907 55.3981 46.9861L59.9094 46.6097C60.5439 46.5585 61.1363 46.289 61.5935 45.8476L69.1792 38.4963C69.7296 37.9619 70.0096 37.2463 70.0049 36.54C70.0049 35.8522 69.739 35.1552 69.2165 34.6255L65.6056 30.9777C65.0738 30.4387 64.36 30.1645 63.6556 30.1645C62.9838 30.1645 62.298 30.4154 61.7708 30.9173L61.7755 30.9126L62.7318 31.9303L63.6975 32.9387L63.6509 32.8922V32.9572L63.6975 32.9387L63.6509 32.8922V32.9572V32.8968L63.6089 32.9387L63.6509 32.9572V32.8968L63.6089 32.9387L67.2198 36.5864L67.2618 36.5446H67.2011L67.2198 36.5864L67.2618 36.5446L67.2198 36.5028L67.2011 36.5446H67.2618L67.2198 36.5028L59.6388 43.8587L59.6808 43.9006L59.6761 43.8401L59.6388 43.8587L59.6808 43.9006L59.6761 43.8401L55.1835 44.2119L55.3002 45.6013L55.2022 44.2119H55.1882V44.2769L55.2349 44.2305L55.1882 44.2119V44.2769H55.2535L55.2349 44.2305L55.1882 44.2769H55.2535H55.1929L55.2489 44.2862V44.2769H55.1882L55.2442 44.2862V44.2816L55.8647 40.3178L55.804 40.3085L55.846 40.3504L55.8647 40.3178L55.804 40.3085L55.846 40.3504L63.6929 32.9433L63.6975 32.9387L62.7318 31.9303Z" fill="black"/>
<path d="M49.0719 19.0679H44.7846C44.388 19.0679 44.0708 18.7472 44.0708 18.3569C44.0708 17.9619 44.3927 17.6459 44.7846 17.6459H49.0719C49.4684 17.6459 49.7857 17.9666 49.7857 18.3569C49.7857 18.7519 49.4638 19.0679 49.0719 19.0679Z" fill="black"/>
<path d="M53.2079 30.7648L49.5329 34.3775C49.3121 34.5945 48.9418 34.4405 48.9418 34.1394V23.8194C48.9418 23.2383 48.4646 22.7692 47.8735 22.7692C47.2823 22.7692 46.8051 23.2383 46.8051 23.8194V34.3144C46.8051 34.6155 46.4348 34.7695 46.214 34.5525L41.9051 30.3167C41.4849 29.9036 40.8083 29.9036 40.3952 30.3167C39.975 30.7298 39.975 31.3949 40.3952 31.801L47.5387 38.8233C47.674 38.9563 47.8948 38.9563 48.0301 38.8233L54.7249 32.242C55.1451 31.829 55.1451 31.1638 54.7249 30.7578C54.3047 30.3517 53.6281 30.3517 53.2079 30.7648Z" fill="black"/>
</g>
<path d="M89.9546 29.4544C89.9546 27.5817 90.3727 25.9089 91.2091 24.4362C92.0637 22.9452 93.2182 21.7907 94.6728 20.9725C96.1456 20.1361 97.791 19.7179 99.6092 19.7179C101.737 19.7179 103.6 20.2634 105.2 21.3543C106.8 22.4452 107.918 23.9543 108.555 25.8816H104.164C103.727 24.9725 103.109 24.2907 102.309 23.8361C101.527 23.3816 100.618 23.1543 99.582 23.1543C98.4729 23.1543 97.4819 23.418 96.6092 23.9452C95.7546 24.4543 95.0819 25.1816 94.591 26.1271C94.1183 27.0726 93.8819 28.1817 93.8819 29.4544C93.8819 30.709 94.1183 31.8181 94.591 32.7817C95.0819 33.7272 95.7546 34.4636 96.6092 34.9909C97.4819 35.5 98.4729 35.7545 99.582 35.7545C100.618 35.7545 101.527 35.5272 102.309 35.0727C103.109 34.5999 103.727 33.909 104.164 32.9999H108.555C107.918 34.9454 106.8 36.4636 105.2 37.5545C103.618 38.6273 101.755 39.1636 99.6092 39.1636C97.791 39.1636 96.1456 38.7545 94.6728 37.9363C93.2182 37.1 92.0637 35.9454 91.2091 34.4727C90.3727 32.9999 89.9546 31.3272 89.9546 29.4544ZM120.325 23.6725C121.471 23.6725 122.489 23.9271 123.38 24.4362C124.271 24.9271 124.962 25.6634 125.453 26.6453C125.962 27.6089 126.216 28.7726 126.216 30.1362V39H122.398V30.6544C122.398 29.4544 122.098 28.5362 121.498 27.8998C120.898 27.2453 120.08 26.918 119.043 26.918C117.989 26.918 117.153 27.2453 116.534 27.8998C115.934 28.5362 115.634 29.4544 115.634 30.6544V39H111.816V18.8179H115.634V25.7725C116.125 25.118 116.78 24.6089 117.598 24.2452C118.416 23.8634 119.325 23.6725 120.325 23.6725ZM136.556 39.2455C135.102 39.2455 133.793 38.9273 132.629 38.2909C131.465 37.6363 130.547 36.7181 129.875 35.5363C129.22 34.3545 128.893 32.9908 128.893 31.4453C128.893 29.8999 129.229 28.5362 129.902 27.3544C130.593 26.1725 131.529 25.2634 132.711 24.6271C133.893 23.9725 135.211 23.6452 136.666 23.6452C138.12 23.6452 139.438 23.9725 140.62 24.6271C141.802 25.2634 142.729 26.1725 143.402 27.3544C144.093 28.5362 144.438 29.8999 144.438 31.4453C144.438 32.9908 144.084 34.3545 143.375 35.5363C142.684 36.7181 141.738 37.6363 140.538 38.2909C139.356 38.9273 138.029 39.2455 136.556 39.2455ZM136.556 35.9181C137.247 35.9181 137.893 35.7545 138.493 35.4272C139.111 35.0818 139.602 34.5727 139.966 33.8999C140.329 33.2272 140.511 32.409 140.511 31.4453C140.511 30.009 140.129 28.9089 139.366 28.1453C138.62 27.3635 137.702 26.9726 136.611 26.9726C135.52 26.9726 134.602 27.3635 133.856 28.1453C133.129 28.9089 132.765 30.009 132.765 31.4453C132.765 32.8817 133.12 33.9908 133.829 34.7727C134.556 35.5363 135.466 35.9181 136.556 35.9181ZM153.021 39.2455C151.785 39.2455 150.676 39.0273 149.694 38.5909C148.712 38.1364 147.93 37.5273 147.348 36.7636C146.785 36 146.476 35.1545 146.421 34.2272H150.266C150.339 34.809 150.621 35.2909 151.112 35.6727C151.621 36.0545 152.248 36.2454 152.994 36.2454C153.721 36.2454 154.285 36.1 154.685 35.809C155.103 35.5181 155.312 35.1454 155.312 34.6908C155.312 34.1999 155.057 33.8363 154.548 33.5999C154.057 33.3454 153.267 33.0726 152.176 32.7817C151.048 32.509 150.121 32.2272 149.394 31.9363C148.685 31.6454 148.066 31.1999 147.539 30.5999C147.03 29.9999 146.776 29.1908 146.776 28.1726C146.776 27.3362 147.012 26.5726 147.485 25.8816C147.976 25.1907 148.666 24.6453 149.557 24.2452C150.466 23.8452 151.53 23.6452 152.748 23.6452C154.548 23.6452 155.985 24.0998 157.058 25.0089C158.13 25.8998 158.721 27.1089 158.83 28.6362H155.176C155.121 28.0362 154.867 27.5635 154.412 27.218C153.976 26.8544 153.385 26.6726 152.639 26.6726C151.948 26.6726 151.412 26.7998 151.03 27.0544C150.667 27.3089 150.485 27.6635 150.485 28.118C150.485 28.6271 150.739 29.018 151.248 29.2908C151.757 29.5453 152.548 29.809 153.621 30.0817C154.712 30.3544 155.612 30.6362 156.321 30.9272C157.03 31.2181 157.639 31.6726 158.148 32.2908C158.676 32.8908 158.948 33.6908 158.967 34.6908C158.967 35.5636 158.721 36.3454 158.23 37.0363C157.758 37.7273 157.067 38.2727 156.157 38.6727C155.267 39.0545 154.221 39.2455 153.021 39.2455ZM176.147 31.1181C176.147 31.6635 176.11 32.1544 176.037 32.5908H164.992C165.083 33.6817 165.465 34.5363 166.137 35.1545C166.81 35.7727 167.637 36.0818 168.619 36.0818C170.037 36.0818 171.046 35.4727 171.646 34.2545H175.765C175.328 35.709 174.492 36.9091 173.256 37.8545C172.019 38.7818 170.501 39.2455 168.701 39.2455C167.246 39.2455 165.937 38.9273 164.774 38.2909C163.628 37.6363 162.728 36.7181 162.074 35.5363C161.437 34.3545 161.119 32.9908 161.119 31.4453C161.119 29.8817 161.437 28.5089 162.074 27.3271C162.71 26.1453 163.601 25.2362 164.746 24.5998C165.892 23.9634 167.21 23.6452 168.701 23.6452C170.137 23.6452 171.419 23.9543 172.546 24.5725C173.692 25.1907 174.574 26.0725 175.192 27.218C175.828 28.3453 176.147 29.6453 176.147 31.1181ZM172.192 30.0271C172.174 29.0453 171.819 28.2635 171.128 27.6817C170.437 27.0816 169.592 26.7816 168.592 26.7816C167.646 26.7816 166.846 27.0726 166.192 27.6544C165.555 28.218 165.165 29.0089 165.019 30.0271H172.192ZM192.087 19.9634C194.087 19.9634 195.841 20.3543 197.351 21.1361C198.878 21.9179 200.051 23.0361 200.869 24.4907C201.705 25.9271 202.123 27.5998 202.123 29.509C202.123 31.4181 201.705 33.0908 200.869 34.5272C200.051 35.9454 198.878 37.0454 197.351 37.8273C195.841 38.6091 194.087 39 192.087 39H185.432V19.9634H192.087ZM191.95 35.7545C193.95 35.7545 195.496 35.209 196.587 34.1181C197.678 33.0272 198.223 31.4908 198.223 29.509C198.223 27.5271 197.678 25.9816 196.587 24.8725C195.496 23.7452 193.95 23.1816 191.95 23.1816H189.25V35.7545H191.95ZM211.691 39.2455C210.236 39.2455 208.927 38.9273 207.763 38.2909C206.6 37.6363 205.681 36.7181 205.009 35.5363C204.354 34.3545 204.027 32.9908 204.027 31.4453C204.027 29.8999 204.363 28.5362 205.036 27.3544C205.727 26.1725 206.663 25.2634 207.845 24.6271C209.027 23.9725 210.345 23.6452 211.8 23.6452C213.254 23.6452 214.573 23.9725 215.754 24.6271C216.936 25.2634 217.863 26.1725 218.536 27.3544C219.227 28.5362 219.573 29.8999 219.573 31.4453C219.573 32.9908 219.218 34.3545 218.509 35.5363C217.818 36.7181 216.873 37.6363 215.673 38.2909C214.491 38.9273 213.163 39.2455 211.691 39.2455ZM211.691 35.9181C212.382 35.9181 213.027 35.7545 213.627 35.4272C214.245 35.0818 214.736 34.5727 215.1 33.8999C215.463 33.2272 215.645 32.409 215.645 31.4453C215.645 30.009 215.263 28.9089 214.5 28.1453C213.754 27.3635 212.836 26.9726 211.745 26.9726C210.654 26.9726 209.736 27.3635 208.991 28.1453C208.263 28.9089 207.9 30.009 207.9 31.4453C207.9 32.8817 208.254 33.9908 208.963 34.7727C209.691 35.5363 210.6 35.9181 211.691 35.9181ZM243.319 23.8907L238.901 39H234.783L232.028 28.4453L229.274 39H225.128L220.682 23.8907H224.555L227.228 35.3999L230.119 23.8907H234.155L236.992 35.3727L239.665 23.8907H243.319ZM253.758 23.6725C255.558 23.6725 257.013 24.2452 258.122 25.3907C259.231 26.518 259.785 28.0998 259.785 30.1362V39H255.967V30.6544C255.967 29.4544 255.667 28.5362 255.067 27.8998C254.467 27.2453 253.649 26.918 252.612 26.918C251.558 26.918 250.722 27.2453 250.103 27.8998C249.503 28.5362 249.203 29.4544 249.203 30.6544V39H245.385V23.8907H249.203V25.7725C249.712 25.118 250.358 24.6089 251.14 24.2452C251.94 23.8634 252.812 23.6725 253.758 23.6725ZM267.234 18.8179V39H263.416V18.8179H267.234ZM277.716 39.2455C276.262 39.2455 274.952 38.9273 273.789 38.2909C272.625 37.6363 271.707 36.7181 271.034 35.5363C270.38 34.3545 270.052 32.9908 270.052 31.4453C270.052 29.8999 270.389 28.5362 271.061 27.3544C271.752 26.1725 272.689 25.2634 273.871 24.6271C275.052 23.9725 276.371 23.6452 277.825 23.6452C279.28 23.6452 280.598 23.9725 281.78 24.6271C282.962 25.2634 283.889 26.1725 284.562 27.3544C285.253 28.5362 285.598 29.8999 285.598 31.4453C285.598 32.9908 285.243 34.3545 284.534 35.5363C283.843 36.7181 282.898 37.6363 281.698 38.2909C280.516 38.9273 279.189 39.2455 277.716 39.2455ZM277.716 35.9181C278.407 35.9181 279.052 35.7545 279.652 35.4272C280.271 35.0818 280.762 34.5727 281.125 33.8999C281.489 33.2272 281.671 32.409 281.671 31.4453C281.671 30.009 281.289 28.9089 280.525 28.1453C279.78 27.3635 278.862 26.9726 277.771 26.9726C276.68 26.9726 275.762 27.3635 275.016 28.1453C274.289 28.9089 273.925 30.009 273.925 31.4453C273.925 32.8817 274.28 33.9908 274.989 34.7727C275.716 35.5363 276.625 35.9181 277.716 35.9181ZM287.417 31.3908C287.417 29.8635 287.717 28.5089 288.317 27.3271C288.935 26.1453 289.762 25.2362 290.799 24.5998C291.853 23.9634 293.026 23.6452 294.317 23.6452C295.444 23.6452 296.426 23.8725 297.263 24.3271C298.117 24.7816 298.799 25.3544 299.308 26.0453V23.8907H303.154V39H299.308V36.7909C298.817 37.5 298.135 38.0909 297.263 38.5636C296.408 39.0182 295.417 39.2455 294.29 39.2455C293.017 39.2455 291.853 38.9182 290.799 38.2636C289.762 37.6091 288.935 36.6909 288.317 35.509C287.717 34.309 287.417 32.9363 287.417 31.3908ZM299.308 31.4453C299.308 30.5181 299.126 29.7271 298.763 29.0726C298.399 28.3998 297.908 27.8908 297.29 27.5453C296.672 27.1817 296.008 26.9998 295.299 26.9998C294.59 26.9998 293.935 27.1726 293.335 27.518C292.735 27.8635 292.244 28.3726 291.863 29.0453C291.499 29.6999 291.317 30.4817 291.317 31.3908C291.317 32.2999 291.499 33.0999 291.863 33.7908C292.244 34.4636 292.735 34.9818 293.335 35.3454C293.953 35.709 294.608 35.8909 295.299 35.8909C296.008 35.8909 296.672 35.7181 297.29 35.3727C297.908 35.009 298.399 34.4999 298.763 33.8454C299.126 33.1726 299.308 32.3726 299.308 31.4453ZM305.901 31.3908C305.901 29.8635 306.201 28.5089 306.801 27.3271C307.419 26.1453 308.256 25.2362 309.31 24.5998C310.365 23.9634 311.537 23.6452 312.828 23.6452C313.81 23.6452 314.747 23.8634 315.637 24.2998C316.528 24.718 317.237 25.2816 317.765 25.9907V18.8179H321.638V39H317.765V36.7636C317.292 37.5091 316.628 38.1091 315.774 38.5636C314.919 39.0182 313.928 39.2455 312.801 39.2455C311.528 39.2455 310.365 38.9182 309.31 38.2636C308.256 37.6091 307.419 36.6909 306.801 35.509C306.201 34.309 305.901 32.9363 305.901 31.3908ZM317.792 31.4453C317.792 30.5181 317.61 29.7271 317.247 29.0726C316.883 28.3998 316.392 27.8908 315.774 27.5453C315.156 27.1817 314.492 26.9998 313.783 26.9998C313.074 26.9998 312.419 27.1726 311.819 27.518C311.219 27.8635 310.728 28.3726 310.346 29.0453C309.983 29.6999 309.801 30.4817 309.801 31.3908C309.801 32.2999 309.983 33.0999 310.346 33.7908C310.728 34.4636 311.219 34.9818 311.819 35.3454C312.437 35.709 313.092 35.8909 313.783 35.8909C314.492 35.8909 315.156 35.7181 315.774 35.3727C316.392 35.009 316.883 34.4999 317.247 33.8454C317.61 33.1726 317.792 32.3726 317.792 31.4453ZM338.575 39.2455C337.12 39.2455 335.811 38.9273 334.647 38.2909C333.484 37.6363 332.565 36.7181 331.893 35.5363C331.238 34.3545 330.911 32.9908 330.911 31.4453C330.911 29.8999 331.247 28.5362 331.92 27.3544C332.611 26.1725 333.547 25.2634 334.729 24.6271C335.911 23.9725 337.229 23.6452 338.684 23.6452C340.138 23.6452 341.456 23.9725 342.638 24.6271C343.82 25.2634 344.747 26.1725 345.42 27.3544C346.111 28.5362 346.456 29.8999 346.456 31.4453C346.456 32.9908 346.102 34.3545 345.393 35.5363C344.702 36.7181 343.756 37.6363 342.556 38.2909C341.375 38.9273 340.047 39.2455 338.575 39.2455ZM338.575 35.9181C339.265 35.9181 339.911 35.7545 340.511 35.4272C341.129 35.0818 341.62 34.5727 341.984 33.8999C342.347 33.2272 342.529 32.409 342.529 31.4453C342.529 30.009 342.147 28.9089 341.384 28.1453C340.638 27.3635 339.72 26.9726 338.629 26.9726C337.538 26.9726 336.62 27.3635 335.875 28.1453C335.147 28.9089 334.784 30.009 334.784 31.4453C334.784 32.8817 335.138 33.9908 335.847 34.7727C336.575 35.5363 337.484 35.9181 338.575 35.9181ZM353.076 26.0725C353.566 25.3816 354.239 24.8089 355.094 24.3543C355.966 23.8816 356.957 23.6452 358.067 23.6452C359.357 23.6452 360.521 23.9634 361.557 24.5998C362.612 25.2362 363.439 26.1453 364.039 27.3271C364.658 28.4908 364.967 29.8453 364.967 31.3908C364.967 32.9363 364.658 34.309 364.039 35.509C363.439 36.6909 362.612 37.6091 361.557 38.2636C360.521 38.9182 359.357 39.2455 358.067 39.2455C356.957 39.2455 355.976 39.0182 355.121 38.5636C354.285 38.1091 353.603 37.5363 353.076 36.8454V46.2001H349.257V23.8907H353.076V26.0725ZM361.067 31.3908C361.067 30.4817 360.876 29.6999 360.494 29.0453C360.13 28.3726 359.639 27.8635 359.021 27.518C358.421 27.1726 357.767 26.9998 357.057 26.9998C356.366 26.9998 355.712 27.1817 355.094 27.5453C354.494 27.8908 354.003 28.3998 353.621 29.0726C353.257 29.7453 353.076 30.5362 353.076 31.4453C353.076 32.3545 353.257 33.1454 353.621 33.8181C354.003 34.4908 354.494 35.009 355.094 35.3727C355.712 35.7181 356.366 35.8909 357.057 35.8909C357.767 35.8909 358.421 35.709 359.021 35.3454C359.639 34.9818 360.13 34.4636 360.494 33.7908C360.876 33.1181 361.067 32.3181 361.067 31.3908ZM372.187 27.0271V34.3363C372.187 34.8454 372.305 35.2181 372.541 35.4545C372.796 35.6727 373.214 35.7818 373.796 35.7818H375.569V39H373.169C369.95 39 368.341 37.4363 368.341 34.309V27.0271H366.541V23.8907H368.341V20.1543H372.187V23.8907H375.569V27.0271H372.187ZM380.251 22.0907C379.579 22.0907 379.015 21.8816 378.56 21.4634C378.124 21.027 377.906 20.4906 377.906 19.8543C377.906 19.2179 378.124 18.6906 378.56 18.2724C379.015 17.8361 379.579 17.6179 380.251 17.6179C380.924 17.6179 381.479 17.8361 381.915 18.2724C382.369 18.6906 382.597 19.2179 382.597 19.8543C382.597 20.4906 382.369 21.027 381.915 21.4634C381.479 21.8816 380.924 22.0907 380.251 22.0907ZM382.133 23.8907V39H378.315V23.8907H382.133ZM392.615 39.2455C391.16 39.2455 389.851 38.9273 388.687 38.2909C387.524 37.6363 386.606 36.7181 385.933 35.5363C385.278 34.3545 384.951 32.9908 384.951 31.4453C384.951 29.8999 385.287 28.5362 385.96 27.3544C386.651 26.1725 387.587 25.2634 388.769 24.6271C389.951 23.9725 391.269 23.6452 392.724 23.6452C394.178 23.6452 395.497 23.9725 396.678 24.6271C397.86 25.2634 398.788 26.1725 399.46 27.3544C400.151 28.5362 400.497 29.8999 400.497 31.4453C400.497 32.9908 400.142 34.3545 399.433 35.5363C398.742 36.7181 397.797 37.6363 396.597 38.2909C395.415 38.9273 394.087 39.2455 392.615 39.2455ZM392.615 35.9181C393.306 35.9181 393.951 35.7545 394.551 35.4272C395.169 35.0818 395.66 34.5727 396.024 33.8999C396.388 33.2272 396.569 32.409 396.569 31.4453C396.569 30.009 396.188 28.9089 395.424 28.1453C394.678 27.3635 393.76 26.9726 392.669 26.9726C391.578 26.9726 390.66 27.3635 389.915 28.1453C389.187 28.9089 388.824 30.009 388.824 31.4453C388.824 32.8817 389.178 33.9908 389.887 34.7727C390.615 35.5363 391.524 35.9181 392.615 35.9181ZM411.67 23.6725C413.47 23.6725 414.925 24.2452 416.034 25.3907C417.143 26.518 417.698 28.0998 417.698 30.1362V39H413.879V30.6544C413.879 29.4544 413.579 28.5362 412.979 27.8998C412.379 27.2453 411.561 26.918 410.525 26.918C409.47 26.918 408.634 27.2453 408.016 27.8998C407.416 28.5362 407.116 29.4544 407.116 30.6544V39H403.297V23.8907H407.116V25.7725C407.625 25.118 408.27 24.6089 409.052 24.2452C409.852 23.8634 410.725 23.6725 411.67 23.6725Z" fill="black"/>
<path d="M38.6367 0.757812H657.242V57.2422H0.757812V38.6367C0.757914 18.0435 17.1909 1.28812 37.6592 0.769531L38.6367 0.757812Z" stroke="#8614C9" stroke-width="1.51517"/>
<path d="M444.949 57L465.304 0H478.949L459.842 57H444.949Z" fill="#8614C9"/>
<path d="M471.949 57L492.903 0H506.949L487.28 57H471.949Z" fill="#8614C9"/>
<path d="M498.949 57L519.903 0H533.949L514.28 57H498.949Z" fill="#8614C9"/>
<path d="M526 57L546.954 0H561L541.331 57H526Z" fill="#8614C9"/>
<path d="M553.949 57L575 0.5H583.5V17.5L568.881 57H553.949Z" fill="#8614C9"/>
<path d="M583 1L583 57" stroke="#8614C9" stroke-width="2" stroke-linecap="round"/>
<defs>
<clipPath id="clip0_277_212">
<rect width="34" height="35" fill="white" transform="translate(36 12)"/>
</clipPath>
</defs>
</svg>
