<svg width="24" height="24" viewBox="0 0 24 24" fill="none" xmlns="http://www.w3.org/2000/svg">
<path d="M11.4616 8.65039C10.4696 8.65039 9.58633 9.04749 8.93406 9.69675C8.2848 10.349 7.8877 11.2323 7.8877 12.2243C7.8877 13.2163 8.2848 14.0996 8.93406 14.7519C9.58633 15.4012 10.4696 15.7983 11.4616 15.7983C12.4536 15.7983 13.3369 15.4012 13.9892 14.7519C14.6385 14.0996 15.0356 13.2163 15.0356 12.2243C15.0356 11.2323 14.6385 10.349 13.9892 9.69675C13.3369 9.04749 12.4536 8.65039 11.4631 8.65039H11.4616Z" fill="#838284"/>
<path d="M23.0955 5.51264C23.0879 3.9967 22.4673 2.61666 21.4738 1.62314C20.4743 0.622079 19.0821 0 17.5556 0H5.54134C4.01483 0 2.6227 0.622079 1.62314 1.62314C0.625099 2.61968 0.0045297 4.00577 0 5.52624C0 5.52624 0 5.53077 0 5.53832V5.53983V17.5556C0 17.5556 0 17.5556 0 17.5586C0 19.0836 0.622079 20.4758 1.62314 21.4753C2.6227 22.4764 4.01483 23.0985 5.54134 23.0985H17.5571C19.0836 23.0985 20.4758 22.4764 21.4753 21.4753C22.4553 20.4969 23.0698 19.1425 23.0955 17.6538L23.0985 17.6462V5.51264H23.0955ZM17.693 12.3117L17.69 12.3193C17.6643 13.9983 16.9713 15.5263 15.866 16.63C14.7412 17.7564 13.1754 18.4555 11.4586 18.4555C9.74037 18.4555 8.17461 17.7564 7.04973 16.63C5.92787 15.5097 5.22879 13.9515 5.22426 12.2408V12.2302V12.2226V12.2196V12.206C5.22728 10.4938 5.92636 8.93409 7.04973 7.81374C8.17461 6.68735 9.74037 5.98827 11.4586 5.98827C13.1769 5.98827 14.7412 6.68735 15.866 7.81374C16.9864 8.93258 17.684 10.4863 17.6915 12.194V12.2136V12.2211V12.3102L17.693 12.3117ZM18.7741 6.65111C18.4978 6.92743 18.1113 7.09955 17.69 7.09955C17.2687 7.09955 16.8822 6.92743 16.6059 6.65111C16.3296 6.3748 16.1559 5.98827 16.1575 5.56701C16.1575 5.14574 16.3296 4.75921 16.6059 4.4829C16.8822 4.20659 17.2687 4.03294 17.69 4.03445C18.1113 4.03445 18.4978 4.20659 18.7741 4.4829C19.0504 4.75921 19.2226 5.14574 19.2226 5.56701C19.2226 5.98827 19.0504 6.3748 18.7741 6.65111Z" fill="#969696"/>
</svg>
