<svg width="23" height="20" viewBox="0 0 23 20" fill="none" xmlns="http://www.w3.org/2000/svg">
<path d="M22.4816 11.1381V19.0949H17.9556V12.213C17.9556 11.4252 17.8184 10.8712 17.5464 10.5459C17.272 10.2181 16.8882 10.058 16.3952 10.058C15.8488 10.058 15.4067 10.2766 15.0661 10.7162C14.7256 11.1558 14.5579 11.9462 14.5579 13.0847V19.0974H10.0547V6.57896H14.2478V8.61708C14.873 7.78608 15.5083 7.19141 16.1513 6.83309C16.7942 6.47477 17.5744 6.29688 18.4969 6.29688C19.7447 6.29688 20.7205 6.69332 21.4245 7.48112C22.131 8.27401 22.4842 9.49129 22.4842 11.1431L22.4816 11.1381Z" fill="#969696"/>
<path d="M4.91649 6.57666H0.410767V19.0951H4.91649V6.57666Z" fill="#969696"/>
<path d="M2.43087 5.16617C3.70106 5.16617 4.73073 4.13647 4.73073 2.86629C4.73073 1.5961 3.70106 0.566406 2.43087 0.566406C1.16069 0.566406 0.130981 1.5961 0.130981 2.86629C0.130981 4.13647 1.16069 5.16617 2.43087 5.16617Z" fill="#969696"/>
</svg>
