<svg width="21" height="19" viewBox="0 0 21 19" fill="none" xmlns="http://www.w3.org/2000/svg">
<path d="M10.3874 2.24403L14.9405 6.74518C15.2141 7.0156 15.0199 7.46921 14.6405 7.46921L1.63413 7.46921C0.901747 7.46921 0.310547 8.05366 0.310547 8.77768C0.310547 9.5017 0.901747 10.0862 1.63413 10.0862L14.8611 10.0862C15.2405 10.0862 15.4347 10.5398 15.1611 10.8102L9.82268 16.0877C9.30208 16.6024 9.30208 17.4311 9.82268 17.937C10.3433 18.4517 11.1816 18.4517 11.6933 17.937L20.5437 9.18767C20.7113 9.02193 20.7113 8.75151 20.5437 8.58577L12.2493 0.386C11.7286 -0.128667 10.8904 -0.128667 10.3786 0.385999C9.86681 0.900666 9.86681 1.72937 10.3874 2.24403Z" fill="#8614C9"/>
</svg>
