<svg width="81" height="37" viewBox="0 0 81 37" fill="none" xmlns="http://www.w3.org/2000/svg">
<path d="M6.7647 26.3515C5.71336 26.3515 4.76716 26.1655 3.9261 25.7935C3.1012 25.4053 2.44614 24.8878 1.96091 24.2408C1.47568 23.5776 1.21689 22.8417 1.18454 22.033H4.0474C4.09593 22.5991 4.3628 23.0762 4.84803 23.4644C5.34944 23.8364 5.97215 24.0224 6.71617 24.0224C7.49254 24.0224 8.09099 23.8769 8.51153 23.5857C8.94823 23.2784 9.16659 22.8902 9.16659 22.4212C9.16659 21.9198 8.92397 21.5477 8.43874 21.3051C7.96969 21.0625 7.21758 20.7956 6.18242 20.5045C5.17961 20.2295 4.3628 19.9627 3.732 19.7039C3.1012 19.4451 2.55128 19.0488 2.08222 18.5151C1.62934 17.9813 1.4029 17.2777 1.4029 16.4043C1.4029 15.6926 1.61316 15.0457 2.0337 14.4634C2.45423 13.8649 3.05268 13.3959 3.82905 13.0562C4.62159 12.7166 5.52736 12.5467 6.54634 12.5467C8.06673 12.5467 9.2879 12.9349 10.2098 13.7113C11.1479 14.4715 11.6494 15.5147 11.714 16.841H8.94823C8.89971 16.2426 8.6571 15.7654 8.22039 15.4096C7.78368 15.0537 7.19332 14.8758 6.4493 14.8758C5.72145 14.8758 5.16343 15.0133 4.77525 15.2883C4.38707 15.5632 4.19297 15.9272 4.19297 16.38C4.19297 16.7359 4.32237 17.0351 4.58116 17.2777C4.83995 17.5203 5.15535 17.7144 5.52736 17.86C5.89937 17.9894 6.4493 18.1592 7.17714 18.3695C8.1476 18.6283 8.94015 18.8952 9.55477 19.1701C10.1856 19.4289 10.7274 19.8171 11.1803 20.3347C11.6332 20.8523 11.8677 21.5397 11.8839 22.3969C11.8839 23.1571 11.6736 23.8364 11.2531 24.4349C10.8325 25.0333 10.2341 25.5024 9.45773 25.842C8.69753 26.1817 7.79985 26.3515 6.7647 26.3515ZM20.1614 19.4613L26.3239 26.1332H22.5876L17.6382 20.3832V26.1332H14.8724V8.17964H17.6382V18.6121L22.4905 12.7651H26.3239L20.1614 19.4613ZM29.7135 10.994C29.212 10.994 28.7915 10.8242 28.4519 10.4845C28.1122 10.1448 27.9424 9.72429 27.9424 9.22289C27.9424 8.72148 28.1122 8.30095 28.4519 7.96129C28.7915 7.62163 29.212 7.4518 29.7135 7.4518C30.1987 7.4518 30.6111 7.62163 30.9508 7.96129C31.2905 8.30095 31.4603 8.72148 31.4603 9.22289C31.4603 9.72429 31.2905 10.1448 30.9508 10.4845C30.6111 10.8242 30.1987 10.994 29.7135 10.994ZM31.0721 12.7651V26.1332H28.3063V12.7651H31.0721ZM37.4692 14.7303C37.9382 14.1156 38.5771 13.5981 39.3858 13.1775C40.1946 12.757 41.1084 12.5467 42.1274 12.5467C43.2919 12.5467 44.3514 12.8379 45.3057 13.4201C46.2761 13.9862 47.0363 14.7869 47.5862 15.822C48.1362 16.8572 48.4111 18.046 48.4111 19.3885C48.4111 20.7309 48.1362 21.9359 47.5862 23.0034C47.0363 24.0548 46.2761 24.8797 45.3057 25.4781C44.3514 26.0604 43.2919 26.3515 42.1274 26.3515C41.1084 26.3515 40.2026 26.1494 39.4101 25.745C38.6176 25.3245 37.9706 24.8069 37.4692 24.1923V32.4897H34.7034V12.7651H37.4692V14.7303ZM45.5968 19.3885C45.5968 18.4665 45.4027 17.674 45.0145 17.0108C44.6425 16.3315 44.1411 15.822 43.5103 15.4824C42.8957 15.1265 42.2325 14.9486 41.5209 14.9486C40.8254 14.9486 40.1622 15.1265 39.5314 15.4824C38.9168 15.8382 38.4154 16.3558 38.0272 17.0351C37.6552 17.7144 37.4692 18.5151 37.4692 19.437C37.4692 20.3589 37.6552 21.1677 38.0272 21.8631C38.4154 22.5425 38.9168 23.0601 39.5314 23.4159C40.1622 23.7717 40.8254 23.9496 41.5209 23.9496C42.2325 23.9496 42.8957 23.7717 43.5103 23.4159C44.1411 23.0439 44.6425 22.5101 45.0145 21.8146C45.4027 21.1191 45.5968 20.3104 45.5968 19.3885Z" fill="#D9D9D9"/>
<path d="M54.9451 7.82202L65.2562 18.1332L54.9451 28.4443" stroke="#767373" stroke-width="2.42615" stroke-linecap="round"/>
<path d="M61.5735 7.82202L71.8846 18.1332L61.5735 28.4443" stroke="#767373" stroke-width="2.42615" stroke-linecap="round"/>
<path d="M68.2021 7.82202L78.5133 18.1332L68.2021 28.4443" stroke="#767373" stroke-width="2.42615" stroke-linecap="round"/>
</svg>
