<svg width="24" height="24" viewBox="0 0 24 24" fill="none" xmlns="http://www.w3.org/2000/svg">
<path d="M16.685 0.866211H7.43157C3.78859 0.866211 0.834229 3.82058 0.834229 7.46356V16.717C0.834229 20.36 3.78859 23.3143 7.43157 23.3143H16.685C20.328 23.3143 23.2824 20.36 23.2824 16.717V7.46356C23.2824 3.82058 20.328 0.866211 16.685 0.866211ZM18.1955 15.8126C17.5672 16.0093 16.7421 16.2442 16.7025 16.3632C16.6628 16.4822 16.9389 16.8741 16.5851 17.0312C16.2312 17.1882 14.6604 17.1486 14.3859 17.2676C14.1114 17.3866 13.2864 18.4845 11.5188 18.3671C9.75128 18.2497 9.3578 17.2676 8.45499 17.1882C7.55217 17.1089 7.13964 17.3644 6.7271 17.1089C6.58589 17.0216 6.43199 16.6123 6.55099 16.3774C6.55099 16.3774 4.56765 15.8126 4.68507 15.4588C4.80248 15.1049 7.55216 14.2021 7.70924 12.1204C7.70924 12.1204 7.82666 11.6889 7.15867 11.335C6.49069 10.9812 5.74497 10.3925 5.97979 10.0387C6.2162 9.68489 7.86475 10.1181 7.86475 10.1181L7.89012 8.26324C7.90123 7.46515 8.18842 6.68927 8.72312 6.09744C9.29274 5.46754 10.1781 4.81542 11.4379 4.73767C13.9512 4.58059 15.1697 6.58455 15.2872 7.48736C15.4046 8.39018 15.4046 10.2767 15.4046 10.2767C15.4046 10.2767 16.9357 9.76581 17.0547 9.96256C17.1737 10.1593 17.4863 10.3561 16.8183 10.9447C16.1503 11.5334 15.6013 11.6127 15.4823 11.9665C15.3633 12.3203 16.3851 14.5195 18.4288 15.3049C18.4303 15.3017 18.8238 15.6158 18.1955 15.8126Z" fill="#969696"/>
</svg>
