<svg width="19" height="24" viewBox="0 0 19 24" fill="none" xmlns="http://www.w3.org/2000/svg">
<path d="M6.38137 19.2889C6.38137 19.2889 7.54161 19.3046 8.11978 19.1147C9.1056 18.7896 9.82292 17.9379 10.0365 16.9236C10.1541 16.3675 10.211 15.7996 10.2031 15.2298L10.113 7.44058C10.0973 6.11692 10.0091 4.79522 9.82291 3.48526C9.74648 2.95462 9.66613 2.12439 9.59753 0.822266H12.5256C12.5256 0.822266 13.3899 3.98653 17.9976 5.57062L18.0446 8.59194C18.0446 8.59194 13.2449 8.73488 12.7177 7.15275L13.0254 15.0928C13.1116 17.3426 12.1826 19.5435 10.4266 20.9514C10.3305 21.0277 10.2306 21.1041 10.1267 21.1785C8.96252 22.0244 7.55925 22.4826 6.12266 22.5511L5.98547 22.557C3.83744 22.6608 1.76781 21.5682 0.768269 19.6669C0.356695 18.8817 0.0587964 17.9046 0 16.6945L0.0450734 15.4687C0.10779 13.7926 0.752593 12.1733 1.9344 10.9808C2.92022 9.98609 4.38033 9.16174 6.47936 9.2616L6.62243 11.9951C6.62243 11.9951 5.03885 11.8991 4.60572 12.187C4.29802 12.3926 3.10641 13.0622 2.73207 14.5993C2.43613 15.8173 3.50426 19.5259 6.38137 19.2889Z" fill="#969696"/>
<path d="M7.32997 20.5482C7.32997 20.5482 8.49022 20.5639 9.06839 20.3739C10.0542 20.0489 10.7715 19.1971 10.9851 18.1829C11.1027 17.6268 11.1596 17.0589 11.1517 16.4891L11.0616 8.69986C11.0459 7.3762 10.9577 6.05449 10.7715 4.74453C10.6951 4.21389 10.6147 3.38367 10.5461 2.08154H13.4742C13.4742 2.08154 14.3385 5.2458 18.9462 6.82989L18.9932 9.85121C18.9932 9.85121 14.1935 9.99415 13.6663 8.41202L13.974 16.352C14.0602 18.6019 13.1312 20.8028 11.3752 22.2106C11.2791 22.287 11.1792 22.3634 11.0753 22.4378C9.91113 23.2837 8.50786 23.7418 7.07127 23.8104L6.93407 23.8163C4.78605 23.92 2.71642 22.8274 1.71688 20.9261C1.3053 20.1409 1.0074 19.1639 0.948608 17.9538L0.993682 16.728C1.0564 15.0519 1.7012 13.4325 2.88301 12.2401C3.86883 11.2454 5.32894 10.421 7.42797 10.5209L7.57104 13.2544C7.57104 13.2544 5.98746 13.1584 5.55432 13.4463C5.24662 13.6518 4.05502 14.3215 3.68068 15.8586C3.38474 17.0765 4.45287 20.7851 7.32997 20.5482Z" fill="#969696"/>
</svg>
