<svg width="20" height="19" viewBox="0 0 20 19" fill="none" xmlns="http://www.w3.org/2000/svg">
<path d="M0.263184 18.9345C0.869977 18.2782 1.41729 17.685 1.96651 17.0938C3.83498 15.0802 5.70218 13.0654 7.57824 11.0594C7.74148 10.8846 7.67631 10.7887 7.56495 10.641C5.2194 7.52189 2.87701 4.39962 0.534627 1.27799C0.472619 1.19532 0.416306 1.10888 0.354297 1.0199C0.465659 0.919571 0.587144 0.963111 0.693444 0.96248C2.39044 0.959325 4.08807 0.964373 5.78507 0.958063C5.97489 0.957432 6.09004 1.02053 6.20204 1.17072C7.71111 3.19438 9.23094 5.21111 10.7356 7.23857C10.9039 7.4651 10.9773 7.39632 11.1235 7.23794C12.9951 5.21364 14.8743 3.19501 16.7447 1.16945C16.887 1.01548 17.0281 0.951753 17.2363 0.958063C17.6735 0.972576 18.112 0.96248 18.6233 0.96248C18.3018 1.31585 18.0323 1.61747 17.7571 1.91405C15.7949 4.02733 13.8341 6.14186 11.8644 8.24819C11.6986 8.42551 11.7106 8.53089 11.8473 8.71325C14.3453 12.0337 16.8371 15.3591 19.3288 18.6839C19.3775 18.7489 19.4509 18.8007 19.4509 18.9023C19.3591 18.9704 19.2516 18.9351 19.1535 18.9357C17.4565 18.9382 15.7589 18.9332 14.0619 18.9408C13.8619 18.9414 13.7379 18.8859 13.6158 18.7224C11.9751 16.5214 10.323 14.3274 8.68299 12.1258C8.52861 11.9182 8.45584 11.9182 8.27994 12.1094C6.23304 14.3306 4.17412 16.541 2.12216 18.7578C2.0051 18.884 1.88678 18.9427 1.71278 18.9382C1.26101 18.9275 0.809234 18.9345 0.263184 18.9345ZM17.0193 17.6945C16.9282 17.5664 16.8813 17.4983 16.832 17.432C14.9642 14.9408 13.097 12.4489 11.2285 9.95825C9.348 7.44996 7.46688 4.9423 5.58322 2.43653C5.51805 2.34945 5.47882 2.21568 5.33646 2.21505C4.5101 2.21315 3.68375 2.21378 2.8517 2.21378C2.8593 2.35261 2.94598 2.40814 2.99976 2.4807C5.13082 5.32659 7.26314 8.17184 9.39609 11.0171C11.0115 13.172 12.6275 15.3263 14.2435 17.48C14.3238 17.5866 14.3865 17.7002 14.5598 17.6983C15.3596 17.6895 16.1588 17.6945 17.0193 17.6945Z" fill="#969696"/>
</svg>
